<?xml version="1.0" encoding="utf-8"?>
<!-- Generator: Adobe Illustrator 18.1.1, SVG Export Plug-In . SVG Version: 6.00 Build 0)  -->
<svg version="1.1" id="Layer_1" xmlns="http://www.w3.org/2000/svg" xmlns:xlink="http://www.w3.org/1999/xlink" x="0px" y="0px"
	 viewBox="0 0 841.9 841.9" enable-background="new 0 0 841.9 841.9" xml:space="preserve">
<circle fill="#EDEBE6" cx="359.5" cy="113.3" r="4.4"/>
<circle fill="#EDEBE6" cx="497.7" cy="311.4" r="4.4"/>
<circle fill="#EDEBE6" cx="594.6" cy="433.3" r="4.4"/>
<circle fill="#EDEBE6" cx="585.8" cy="78.5" r="4.4"/>
<circle fill="#EDEBE6" cx="359.5" cy="829.4" r="4.4"/>
<circle fill="#EDEBE6" cx="4.4" cy="588.9" r="4.4"/>
<circle fill="#EDEBE6" cx="4.4" cy="138.4" r="4.4"/>
<circle fill="#EDEBE6" cx="16.7" cy="167.7" r="4.4"/>
<circle fill="#EDEBE6" cx="185.4" cy="687.9" r="4.4"/>
<circle fill="#EDEBE6" cx="98.3" cy="357.1" r="4.4"/>
<circle fill="#EDEBE6" cx="341" cy="468.1" r="4.4"/>
<circle fill="#EDEBE6" cx="380" cy="372.1" r="3.1"/>
<circle fill="#EDEBE6" cx="602" cy="315.7" r="3.1"/>
<circle fill="#EDEBE6" cx="573.6" cy="336.4" r="3.1"/>
<circle fill="#EDEBE6" cx="403" cy="569" r="3.1"/>
<circle fill="#EDEBE6" cx="284.4" cy="557.3" r="3.1"/>
<circle fill="#EDEBE6" cx="253.9" cy="377.8" r="3.1"/>
<circle fill="#EDEBE6" cx="294.6" cy="291.8" r="3.1"/>
<circle fill="#EDEBE6" cx="189.7" cy="229.6" r="3.1"/>
<circle fill="#EDEBE6" cx="123.5" cy="285.6" r="3.1"/>
<circle fill="#EDEBE6" cx="53.8" cy="522.5" r="3.1"/>
<circle fill="#EDEBE6" cx="102.7" cy="472.4" r="3.1"/>
<circle fill="#EDEBE6" cx="94" cy="499.1" r="3.1"/>
<circle fill="#EDEBE6" cx="131" cy="729.3" r="3.1"/>
<circle fill="#EDEBE6" cx="82.1" cy="669.7" r="3.1"/>
<circle fill="#EDEBE6" cx="230.2" cy="829.4" r="3.1"/>
<circle fill="#EDEBE6" cx="218.7" cy="781" r="3.1"/>
<circle fill="#EDEBE6" cx="373.8" cy="747.4" r="3.1"/>
<circle fill="#EDEBE6" cx="320.4" cy="683.6" r="3.1"/>
<circle fill="#EDEBE6" cx="590.2" cy="652.5" r="3.1"/>
<circle fill="#EDEBE6" cx="431.3" cy="440.7" r="3.1"/>
<circle fill="#EDEBE6" cx="666.3" cy="588.9" r="3.1"/>
<circle fill="#EDEBE6" cx="807.2" cy="475.5" r="3.1"/>
<circle fill="#EDEBE6" cx="807.2" cy="641.9" r="3.1"/>
<circle fill="#EDEBE6" cx="701.8" cy="703.5" r="3.1"/>
<circle fill="#EDEBE6" cx="660.1" cy="781" r="3.1"/>
<circle fill="#EDEBE6" cx="576.7" cy="767.2" r="3.1"/>
<circle fill="#EDEBE6" cx="598.9" cy="519.4" r="3.1"/>
<circle fill="#EDEBE6" cx="576.7" cy="472.4" r="3.1"/>
<circle fill="#EDEBE6" cx="627" cy="472.4" r="3.1"/>
<circle fill="#EDEBE6" cx="777.5" cy="205.7" r="3.1"/>
<circle fill="#EDEBE6" cx="630.1" cy="189.4" r="3.1"/>
<circle fill="#EDEBE6" cx="522.7" cy="189.4" r="3.1"/>
<circle fill="#EDEBE6" cx="516.6" cy="142.7" r="3.1"/>
<circle fill="#EDEBE6" cx="443.1" cy="34.5" r="3.1"/>
<circle fill="#EDEBE6" cx="281.3" cy="63" r="3.1"/>
<circle fill="#EDEBE6" cx="185.4" cy="96.3" r="3.1"/>
<circle fill="#EDEBE6" cx="94" cy="59.9" r="3.1"/>
<circle fill="#EDEBE6" cx="774.4" cy="74.2" r="3.1"/>
<circle fill="#EDEBE6" cx="720.8" cy="167.7" r="4.4"/>
<circle fill="#EDEBE6" cx="755.6" cy="759.7" r="4.4"/>
<circle fill="#EDEBE6" cx="502.1" cy="729.3" r="4.4"/>
<circle fill="#EDEBE6" cx="733.8" cy="557.3" r="4.4"/>
<circle fill="#EDEBE6" cx="527.1" cy="526.9" r="4.4"/>
<circle fill="#EDEBE6" cx="716.4" cy="449.6" r="4.4"/>
<circle fill="#EDEBE6" cx="253.9" cy="296.2" r="4.4"/>
<circle fill="#EDEBE6" cx="176.7" cy="485.5" r="4.4"/>
<circle fill="#EDEBE6" cx="131" cy="148.2" r="4.4"/>
<circle fill="#EDEBE6" cx="399.8" cy="129.7" r="4.4"/>
<circle fill="#EDEBE6" cx="435.7" cy="148.2" r="4.4"/>
<rect fill="none" width="841.9" height="841.9"/>
</svg>
